<svg preserveAspectRatio="none" width="100%" height="100%" overflow="visible" style="display: block;" viewBox="0 0 28 24" fill="none" xmlns="http://www.w3.org/2000/svg">
<g id="archive-box--box-content-banker-archive-file">
<path id="Subtract" d="M4.23588 8.23938C4.83167 8.25644 5.4329 8.27476 6.03921 8.29323C8.60494 8.37144 11.2619 8.45239 13.9834 8.45239C16.705 8.45239 19.3619 8.37144 21.9275 8.29323C22.5265 8.27498 23.1205 8.2569 23.7092 8.24001C23.8192 9.46149 23.8967 10.7042 23.8967 11.9641C23.8967 14.0459 23.685 16.2868 23.4651 18.3986C23.273 20.2429 21.8001 21.7168 19.9582 21.9292C15.9121 22.3958 12.0329 22.3958 7.98681 21.9292C6.14481 21.7168 4.67202 20.2429 4.47994 18.3986C4.26 16.2868 4.04836 14.0459 4.04836 11.9641C4.04836 10.704 4.1259 9.46106 4.23588 8.23938Z" stroke="#616972" stroke-width="2.19" stroke-linecap="round" stroke-linejoin="round"/>
<path id="Vector" d="M11.1998 14.3035H16.7373" stroke="#616972" stroke-width="2.19" stroke-linecap="round" stroke-linejoin="round"/>
<path id="Intersect" d="M2.26086 6.97523C2.46052 7.71878 3.15406 8.20917 3.92366 8.23066C7.13444 8.32033 10.5061 8.4525 13.9832 8.4525C17.4603 8.4525 20.8321 8.32033 24.0428 8.23066C24.8124 8.20917 25.5059 7.71878 25.7056 6.97523C26.0534 5.67993 26.0534 4.77257 25.7056 3.47727C25.5059 2.73372 24.8124 2.24333 24.0428 2.22184C20.8321 2.13217 17.4603 2 13.9832 2C10.5061 2 7.13444 2.13217 3.92366 2.22184C3.15406 2.24333 2.46052 2.73372 2.26086 3.47727C1.91305 4.77257 1.91305 5.67993 2.26086 6.97523Z" stroke="#616972" stroke-width="2.19" stroke-linecap="round" stroke-linejoin="round"/>
</g>
</svg>
