<svg preserveAspectRatio="none" width="100%" height="100%" overflow="visible" style="display: block;" viewBox="0 0 27 27" fill="none" xmlns="http://www.w3.org/2000/svg">
<g id="calendar-mark--calendar-date-day-month-mark">
<path id="Intersect" d="M2.3187 20.07C2.62464 22.6976 4.84319 24.7838 7.58659 24.911C9.4828 24.9989 11.4198 25.0446 13.5221 25.0446C15.6245 25.0446 17.5615 24.9989 19.4577 24.911C22.2011 24.7838 24.4197 22.6976 24.7255 20.07C25.1505 16.4205 25.1505 13.3127 24.7255 9.66323C24.4197 7.03566 22.2011 4.94942 19.4577 4.82223C17.5615 4.73431 15.6245 4.68861 13.5221 4.68861C11.4198 4.68861 9.4828 4.73431 7.58659 4.82223C4.84319 4.94942 2.62464 7.03566 2.3187 9.66323C1.89377 13.3127 1.89377 16.4205 2.3187 20.07Z" stroke="#616972" stroke-width="2.19" stroke-linecap="round" stroke-linejoin="round"/>
<path id="Line 3" d="M8.45609 2V7.06982" stroke="#616972" stroke-width="2.19" stroke-linecap="round" stroke-linejoin="round"/>
<path id="Line 4" d="M18.5885 2V7.06982" stroke="#616972" stroke-width="2.19" stroke-linecap="round" stroke-linejoin="round"/>
<path id="Union" d="M8.4579 13.5849C8.16293 13.5849 7.99701 13.419 7.99701 13.124C7.99701 12.829 8.16293 12.6631 8.4579 12.6631" stroke="#616972" stroke-width="2.19" stroke-linecap="round" stroke-linejoin="round"/>
<path id="Union_2" d="M8.4615 13.5849C8.75647 13.5849 8.92239 13.419 8.92239 13.124C8.92239 12.829 8.75647 12.6631 8.4615 12.6631" stroke="#616972" stroke-width="2.19" stroke-linecap="round" stroke-linejoin="round"/>
<path id="Union_3" d="M8.4579 19.1155C8.16293 19.1155 7.99701 18.9497 7.99701 18.6547C7.99701 18.3597 8.16293 18.1938 8.4579 18.1938" stroke="#616972" stroke-width="2.19" stroke-linecap="round" stroke-linejoin="round"/>
<path id="Union_4" d="M8.4615 19.1155C8.75647 19.1155 8.92239 18.9497 8.92239 18.6547C8.92239 18.3597 8.75647 18.1938 8.4615 18.1938" stroke="#616972" stroke-width="2.19" stroke-linecap="round" stroke-linejoin="round"/>
<path id="Union_5" d="M13.5187 13.5849C13.2238 13.5849 13.0578 13.419 13.0578 13.124C13.0578 12.829 13.2238 12.6631 13.5187 12.6631" stroke="#616972" stroke-width="2.19" stroke-linecap="round" stroke-linejoin="round"/>
<path id="Union_6" d="M13.5223 13.5849C13.8173 13.5849 13.9832 13.419 13.9832 13.124C13.9832 12.829 13.8173 12.6631 13.5223 12.6631" stroke="#616972" stroke-width="2.19" stroke-linecap="round" stroke-linejoin="round"/>
<path id="Union_7" d="M13.5187 19.1155C13.2238 19.1155 13.0578 18.9497 13.0578 18.6547C13.0578 18.3597 13.2238 18.1938 13.5187 18.1938" stroke="#616972" stroke-width="2.19" stroke-linecap="round" stroke-linejoin="round"/>
<path id="Union_8" d="M13.5223 19.1155C13.8173 19.1155 13.9832 18.9497 13.9832 18.6547C13.9832 18.3597 13.8173 18.1938 13.5223 18.1938" stroke="#616972" stroke-width="2.19" stroke-linecap="round" stroke-linejoin="round"/>
<path id="Union_9" d="M18.5831 13.5849C18.2882 13.5849 18.1223 13.419 18.1223 13.124C18.1223 12.829 18.2882 12.6631 18.5831 12.6631" stroke="#616972" stroke-width="2.19" stroke-linecap="round" stroke-linejoin="round"/>
<path id="Union_10" d="M18.5867 13.5849C18.8817 13.5849 19.0476 13.419 19.0476 13.124C19.0476 12.829 18.8817 12.6631 18.5867 12.6631" stroke="#616972" stroke-width="2.19" stroke-linecap="round" stroke-linejoin="round"/>
</g>
</svg>
